<svg width="1440" height="887" viewBox="0 0 1440 887" fill="none" xmlns="http://www.w3.org/2000/svg">
<path d="M962 863.282L1080.71 886.717L1207.42 740.56L1244.4 553.248L962 863.282Z" fill="#E9F2F4" fill-opacity="0.1"/>
<path d="M1290.9 317.665L1249.16 529.112L1519.56 197.208L1557.91 2.95837L1290.9 317.665Z" fill="#E9F2F4" fill-opacity="0.1"/>
<path d="M450.912 861.282L332.203 884.717L205.496 738.56L168.517 551.248L450.912 861.282Z" fill="#E9F2F4" fill-opacity="0.1"/>
<path d="M122.009 315.665L163.752 527.112L-106.651 195.208L-145 0.958371L122.009 315.665Z" fill="#E9F2F4" fill-opacity="0.1"/>
<path d="M985.904 639.665L944.16 851.113L1214.56 519.208L1252.91 324.959L985.904 639.665Z" fill="#E9F2F4" fill-opacity="0.1"/>
<path d="M427.009 637.666L468.753 849.113L198.349 517.209L160 322.959L427.009 637.666Z" fill="#E9F2F4" fill-opacity="0.1"/>
</svg>
