<svg width="25" height="25" viewBox="0 0 25 25" fill="none" xmlns="http://www.w3.org/2000/svg">
<path d="M0 1.5625C0 0.699562 0.699562 0 1.5625 0H4.92636C5.69017 0 6.34203 0.552203 6.46761 1.30562L7.62278 8.23667C7.73555 8.9133 7.39384 9.58433 6.78031 9.89109L4.36134 11.1006C6.10556 15.4348 9.56513 18.8944 13.8994 20.6386L15.1089 18.2197C15.4156 17.6061 16.0867 17.2644 16.7633 17.3772L23.6944 18.5323C24.4478 18.658 25 19.3098 25 20.0736V23.4375C25 24.3005 24.3005 25 23.4375 25H20.3125C9.09422 25 0 15.9058 0 4.6875V1.5625Z" fill="#8F9292"/>
</svg>
