<svg width="1440" height="1025" viewBox="0 0 1440 1025" fill="none" xmlns="http://www.w3.org/2000/svg">
<path d="M991 943.282L1109.71 966.717L1236.42 820.56L1273.39 633.248L991 943.282Z" fill="#E9F2F4"/>
<path d="M1319.9 397.665L1278.16 609.112L1548.56 277.208L1586.91 82.9584L1319.9 397.665Z" fill="#E9F2F4"/>
<path d="M479.912 941.282L361.203 964.717L234.496 818.56L197.517 631.248L479.912 941.282Z" fill="#E9F2F4"/>
<path d="M151.009 395.665L192.752 607.112L-77.6513 275.208L-116 80.9584L151.009 395.665Z" fill="#E9F2F4"/>
<path d="M1014.9 719.665L973.16 931.113L1243.56 599.208L1281.91 404.959L1014.9 719.665Z" fill="#E9F2F4"/>
<path d="M456.009 717.666L497.753 929.114L227.349 597.209L189 402.959L456.009 717.666Z" fill="#E9F2F4"/>
</svg>
