<svg width="1440" height="1057" viewBox="0 0 1440 1057" fill="none" xmlns="http://www.w3.org/2000/svg">
<path d="M588.004 92.6441L469.295 69.2087L342.588 215.366L305.609 402.678L588.004 92.6441Z" fill="#E9F2F4"/>
<path d="M259.1 638.261L300.844 426.813L30.4402 758.718L-7.9084 952.967L259.1 638.261Z" fill="#E9F2F4"/>
<path d="M401 60.644L272.488 35.2734L136.565 187.186L97.949 382.788L401 60.644Z" fill="#E9F2F4"/>
<path d="M49.3822 628.797L92.9733 407.992L-196.954 753.093L-237 955.939L49.3822 628.797Z" fill="#E9F2F4"/>
<path d="M846 100.644L964.709 77.2087L1091.42 223.366L1128.39 410.678L846 100.644Z" fill="#E9F2F4"/>
<path d="M1174.9 646.261L1133.16 434.813L1403.56 766.718L1441.91 960.967L1174.9 646.261Z" fill="#E9F2F4"/>
<path d="M1050 73.644L1178.52 48.2734L1314.44 200.186L1353.05 395.788L1050 73.644Z" fill="#E9F2F4"/>
<path d="M1401.62 641.797L1358.03 420.992L1647.96 766.093L1688 968.939L1401.62 641.797Z" fill="#E9F2F4"/>
</svg>
